<svg version="1.1" baseProfile="full" width="584.8" height="573.0" viewbox="0 0 584.75 573" xmlns="http://www.w3.org/2000/svg" xmlns:xlink="http://www.w3.org/1999/xlink" xmlns:ev="http://www.w3.org/2001/xml-events">
	<desc >[&lt;actor&gt;Embiber]
	[Filter by|* Cocktail Name;* Ingredient]
	[Catalog|* Classics;* Favorites;* Greg from H2D]
	[Selectors|* Base Ingredient (Optional);* Style (Optional)]
	
	[Embiber]-&gt;[Landing page]
	
	[Landing page]-&gt;[Search]
	[Landing page]-&gt;[Browse]
	[Landing page]-&gt;[Urban Spoon]
	
	[Search]-&gt;[Filter by]
	[Browse]-&gt;[Catalog]
	[Urban Spoon]-&gt;[Selectors]
	
	[Filter by]-&gt;[Cocktail List]
	[Catalog]-&gt;[Cocktail List]
	
	[Cocktail List]-&gt;[Cocktail Recipe]
	[Selectors]-&gt;[Cocktail Recipe]</desc>
	<g stroke-width="1.0" text-align="left" font="12pt Helvetica, Arial, sans-serif" font-size="12pt" font-family="Helvetica" font-weight="bold" font-style="normal">
		<g transform="translate(0.5, 0.5)" font-family="Helvetica" font-size="12pt" font-weight="bold" font-style="normal" stroke-width="3.0" stroke-linejoin="round" stroke-linecap="round" stroke="#33322E">
			<g stroke="transparent" fill="transparent">
				<rect x="0.0" y="0.0" height="573.0" width="584.8" stroke="none"></rect>
			</g>
			<g transform="translate(8, 8)" fill="#33322E">
				<g transform="translate(20, 20)" fill="#33322E" font-family="Helvetica" font-size="12pt" font-weight="normal" font-style="normal">
					<path d="M238.5 55.0 L238.5 75 L238.5 88.33333333333333 L238.5 88.3 " fill="none"></path>
					<path d="M233.2 81.7 L238.5 88.3 L243.8 81.7 L238.5 95.0 Z"></path>
					<path d="M178.5 122.8 L65.5 146 L65.5 159.33333333333334 L65.5 159.3 " fill="none"></path>
					<path d="M60.2 152.7 L65.5 159.3 L70.8 152.7 L65.5 166.0 Z"></path>
					<path d="M238.5 126.0 L238.5 146 L238.5 159.33333333333334 L238.5 159.3 " fill="none"></path>
					<path d="M233.2 152.7 L238.5 159.3 L243.8 152.7 L238.5 166.0 Z"></path>
					<path d="M298.5 122.1 L422.25 146 L422.25 181.5 L422.25 181.5 L422.25 217 L422.25 217 L422.25 260.8333333333333 L422.3 260.8 " fill="none"></path>
					<path d="M416.9 254.2 L422.3 260.8 L427.6 254.2 L422.3 267.5 Z"></path>
					<path d="M65.5 197.0 L65.5 217 L65.5 237.83333333333334 L65.5 237.8 " fill="none"></path>
					<path d="M60.2 231.2 L65.5 237.8 L70.8 231.2 L65.5 244.5 Z"></path>
					<path d="M238.5 197.0 L238.5 217 L238.5 230.33333333333334 L238.5 230.3 " fill="none"></path>
					<path d="M233.2 223.7 L238.5 230.3 L243.8 223.7 L238.5 237.0 Z"></path>
					<path d="M422.3 298.5 L422.25 349 L422.25 362.3333333333333 L422.3 362.3 " fill="none"></path>
					<path d="M416.9 355.7 L422.3 362.3 L427.6 355.7 L422.3 369.0 Z"></path>
					<path d="M65.5 321.5 L65.5 349 L123.55887148161867 388.26524834306 L123.6 388.3 " fill="none"></path>
					<path d="M115.0 388.9 L123.6 388.3 L121.0 380.1 L129.1 392.0 Z"></path>
					<path d="M238.5 329.0 L238.5 349 L180.44112851838133 388.26524834306 L180.4 388.3 " fill="none"></path>
					<path d="M183.0 380.1 L180.4 388.3 L189.0 388.9 L174.9 392.0 Z"></path>
					<path d="M152.0 423.0 L152 466 L202.61193740907865 483.78934433685436 L202.6 483.8 " fill="none"></path>
					<path d="M194.6 486.6 L202.6 483.8 L198.1 476.5 L208.9 486.0 Z"></path>
					<path d="M422.3 446.0 L422.25 466 L327.0246859869061 485.9734041209148 L327.0 486.0 " fill="none"></path>
					<path d="M332.5 479.4 L327.0 486.0 L334.6 489.8 L320.5 487.3 Z"></path>
					<g data-name="Filter by">
						<g fill="#eee8d5" stroke="#33322E" data-name="Filter by">
							<rect x="0.0" y="245.0" height="77.0" width="131.0" data-name="Filter by"></rect>
							<path d="M0.0 276.0 L131.0 276.0" fill="none" data-name="Filter by"></path>
						</g>
						<g transform="translate(0, 245)" font-family="Helvetica" font-size="12pt" font-weight="bold" font-style="normal" data-name="Filter by">
							<g transform="translate(8, 8)" fill="#33322E" text-align="center" data-name="Filter by">
								<text x="57.5" y="13.5" stroke="none" text-anchor="middle" data-name="Filter by">Filter by</text>
								
							</g>
						</g>
						<g transform="translate(0, 276)" font-family="Helvetica" font-size="12pt" font-weight="normal" font-style="normal" data-name="Filter by">
							<g transform="translate(8, 8)" fill="#33322E" text-align="left" data-name="Filter by">
								<text x="0.0" y="13.5" stroke="none" data-name="Filter by">* Cocktail Name</text>
								<text x="0.0" y="28.5" stroke="none" data-name="Filter by">* Ingredient</text>
								
							</g>
						</g>
					</g>
					<g data-name="Catalog">
						<g fill="#eee8d5" stroke="#33322E" data-name="Catalog">
							<rect x="171.0" y="237.0" height="92.0" width="135.0" data-name="Catalog"></rect>
							<path d="M171.0 268.0 L306.0 268.0" fill="none" data-name="Catalog"></path>
						</g>
						<g transform="translate(171, 237)" font-family="Helvetica" font-size="12pt" font-weight="bold" font-style="normal" data-name="Catalog">
							<g transform="translate(8, 8)" fill="#33322E" text-align="center" data-name="Catalog">
								<text x="59.5" y="13.5" stroke="none" text-anchor="middle" data-name="Catalog">Catalog</text>
								
							</g>
						</g>
						<g transform="translate(171, 268)" font-family="Helvetica" font-size="12pt" font-weight="normal" font-style="normal" data-name="Catalog">
							<g transform="translate(8, 8)" fill="#33322E" text-align="left" data-name="Catalog">
								<text x="0.0" y="13.5" stroke="none" data-name="Catalog">* Classics</text>
								<text x="0.0" y="28.5" stroke="none" data-name="Catalog">* Favorites</text>
								<text x="0.0" y="43.5" stroke="none" data-name="Catalog">* Greg from H2D</text>
								
							</g>
						</g>
					</g>
					<g data-name="Selectors">
						<g fill="#eee8d5" stroke="#33322E" data-name="Selectors">
							<rect x="316.0" y="369.0" height="77.0" width="213.0" data-name="Selectors"></rect>
							<path d="M316.0 400.0 L529.0 400.0" fill="none" data-name="Selectors"></path>
						</g>
						<g transform="translate(316, 369)" font-family="Helvetica" font-size="12pt" font-weight="bold" font-style="normal" data-name="Selectors">
							<g transform="translate(8, 8)" fill="#33322E" text-align="center" data-name="Selectors">
								<text x="98.5" y="13.5" stroke="none" text-anchor="middle" data-name="Selectors">Selectors</text>
								
							</g>
						</g>
						<g transform="translate(316, 400)" font-family="Helvetica" font-size="12pt" font-weight="normal" font-style="normal" data-name="Selectors">
							<g transform="translate(8, 8)" fill="#33322E" text-align="left" data-name="Selectors">
								<text x="0.0" y="13.5" stroke="none" data-name="Selectors">* Base Ingredient (Optional)</text>
								<text x="0.0" y="28.5" stroke="none" data-name="Selectors">* Style (Optional)</text>
								
							</g>
						</g>
					</g>
					<g data-name="Embiber">
						<g fill="#eee8d5" stroke="#33322E" data-name="Embiber">
							<circle r="4.0" cx="238.5" cy="12.0" data-name="Embiber"></circle>
							<path d="M238.5 16.0 L238.5 24.0" fill="none" data-name="Embiber"></path>
							<path d="M234.5 20.0 L242.5 20.0" fill="none" data-name="Embiber"></path>
							<path d="M234.5 28.0 L238.5 24.0 L242.5 28.0" fill="none" data-name="Embiber"></path>
						</g>
						<g transform="translate(199, 24)" font-family="Helvetica" font-size="12pt" font-weight="normal" font-style="normal" data-name="Embiber">
							<g transform="translate(8, 8)" fill="#33322E" text-align="center" data-name="Embiber">
								<text x="32.0" y="13.5" stroke="none" text-anchor="middle" data-name="Embiber">Embiber</text>
								
							</g>
						</g>
					</g>
					<g data-name="Landing page">
						<g fill="#eee8d5" stroke="#33322E" data-name="Landing page">
							<rect x="179.0" y="95.0" height="31.0" width="120.0" data-name="Landing page"></rect>
						</g>
						<g transform="translate(179, 95)" font-family="Helvetica" font-size="12pt" font-weight="bold" font-style="normal" data-name="Landing page">
							<g transform="translate(8, 8)" fill="#33322E" text-align="center" data-name="Landing page">
								<text x="52.0" y="13.5" stroke="none" text-anchor="middle" data-name="Landing page">Landing page</text>
								
							</g>
						</g>
					</g>
					<g data-name="Search">
						<g fill="#eee8d5" stroke="#33322E" data-name="Search">
							<rect x="31.0" y="166.0" height="31.0" width="69.0" data-name="Search"></rect>
						</g>
						<g transform="translate(31, 166)" font-family="Helvetica" font-size="12pt" font-weight="bold" font-style="normal" data-name="Search">
							<g transform="translate(8, 8)" fill="#33322E" text-align="center" data-name="Search">
								<text x="26.5" y="13.5" stroke="none" text-anchor="middle" data-name="Search">Search</text>
								
							</g>
						</g>
					</g>
					<g data-name="Browse">
						<g fill="#eee8d5" stroke="#33322E" data-name="Browse">
							<rect x="202.0" y="166.0" height="31.0" width="74.0" data-name="Browse"></rect>
						</g>
						<g transform="translate(202, 166)" font-family="Helvetica" font-size="12pt" font-weight="bold" font-style="normal" data-name="Browse">
							<g transform="translate(8, 8)" fill="#33322E" text-align="center" data-name="Browse">
								<text x="29.0" y="13.5" stroke="none" text-anchor="middle" data-name="Browse">Browse</text>
								
							</g>
						</g>
					</g>
					<g data-name="Urban Spoon">
						<g fill="#eee8d5" stroke="#33322E" data-name="Urban Spoon">
							<rect x="364.0" y="268.0" height="31.0" width="116.0" data-name="Urban Spoon"></rect>
						</g>
						<g transform="translate(364, 268)" font-family="Helvetica" font-size="12pt" font-weight="bold" font-style="normal" data-name="Urban Spoon">
							<g transform="translate(8, 8)" fill="#33322E" text-align="center" data-name="Urban Spoon">
								<text x="50.0" y="13.5" stroke="none" text-anchor="middle" data-name="Urban Spoon">Urban Spoon</text>
								
							</g>
						</g>
					</g>
					<g data-name="Cocktail List">
						<g fill="#eee8d5" stroke="#33322E" data-name="Cocktail List">
							<rect x="97.0" y="392.0" height="31.0" width="111.0" data-name="Cocktail List"></rect>
						</g>
						<g transform="translate(97, 392)" font-family="Helvetica" font-size="12pt" font-weight="bold" font-style="normal" data-name="Cocktail List">
							<g transform="translate(8, 8)" fill="#33322E" text-align="center" data-name="Cocktail List">
								<text x="47.5" y="13.5" stroke="none" text-anchor="middle" data-name="Cocktail List">Cocktail List</text>
								
							</g>
						</g>
					</g>
					<g data-name="Cocktail Recipe">
						<g fill="#eee8d5" stroke="#33322E" data-name="Cocktail Recipe">
							<rect x="186.0" y="486.0" height="31.0" width="135.0" data-name="Cocktail Recipe"></rect>
						</g>
						<g transform="translate(186, 486)" font-family="Helvetica" font-size="12pt" font-weight="bold" font-style="normal" data-name="Cocktail Recipe">
							<g transform="translate(8, 8)" fill="#33322E" text-align="center" data-name="Cocktail Recipe">
								<text x="59.5" y="13.5" stroke="none" text-anchor="middle" data-name="Cocktail Recipe">Cocktail Recipe</text>
								
							</g>
						</g>
					</g>
				</g>
			</g>
		</g>
	</g>
</svg>